<svg width="66" height="67" viewBox="0 0 66 67" fill="none" xmlns="http://www.w3.org/2000/svg">
<path d="M49.3762 26.7188L25.3977 26.7188C24.4688 26.7188 23.5776 27.0863 22.9342 27.7296C22.2909 28.373 21.9233 29.2642 21.9233 30.1931L21.9233 41.189C21.9233 42.1179 22.2909 43.0091 22.9342 43.6524C23.5776 44.2957 24.4688 44.6633 25.3977 44.6633L49.3762 44.6633C50.305 44.6633 51.1962 44.2957 51.8395 43.6524C52.4829 43.0091 52.8504 42.1179 52.8504 41.189L52.8504 30.1931C52.8504 29.2642 52.4829 28.373 51.8395 27.7296C51.1962 27.0863 50.305 26.7188 49.3762 26.7188ZM38.6347 54.2867L14.6562 54.2867C13.7274 54.2867 12.8361 53.9192 12.1928 53.2759C11.5495 52.6325 11.1819 51.7413 11.1819 50.8124L11.1819 39.8165C11.1819 38.8876 11.5495 37.9964 12.1928 37.3531C12.8361 36.7097 13.7274 36.3422 14.6562 36.3422L38.6347 36.3422C39.5636 36.3422 40.4548 36.7097 41.0981 37.3531C41.7414 37.9964 42.109 38.8876 42.109 39.8165L42.109 50.8124C42.109 51.7413 41.7414 52.6325 41.0981 53.2759C40.4548 53.9192 39.5636 54.2867 38.6347 54.2867Z" stroke="currentColor" stroke-width="2.5" stroke-linecap="round" stroke-linejoin="round"/>
</svg> 