<svg xmlns="http://www.w3.org/2000/svg" viewBox="0 0 24 24" fill="currentColor" width="24px" height="24px">
  <path d="M12.74 2.32C12.74 2.32 12.74 2.32 12.74 2.32C14.16 1.01 16.13 0.78 17.78 1.7C19.52 2.67 20.49 4.6 20.4 6.48C20.4 6.48 20.4 6.48 20.4 6.48C20.28 8.62 18.76 10.1 16.8 10.54L14.1 11.8L15.82 13.52L17.94 13.14C18.46 13.05 18.98 13.26 19.29 13.68L22.32 17.68C22.63 18.1 22.63 18.66 22.32 19.08L21.95 19.56C21.64 19.98 21.12 20.18 20.6 20.09L18.48 19.71L16.8 21.4L15.47 18.81L12.7 17.51L12.7 17.51C12.16 17.24 11.67 16.83 11.3 16.33L10.08 13.47L4.42 19.13C3.84 19.71 2.89 19.71 2.31 19.13L1.87 18.69C1.29 18.11 1.29 17.16 1.87 16.58L7.53 10.92L4.67 9.7C4.17 9.33 3.76 8.84 3.49 8.3L1.5 6.89C1.02 7.84 0.79 8.92 0.85 10C0.99 12.46 2.66 14.47 4.89 15.3L4.89 15.3L4.89 15.3L4.89 15.3L4.89 15.3L9.5 10.89L11.06 12.45L10.99 12.53L10.99 12.53L10.99 12.53C10.72 12.8 10.45 13.07 10.17 13.33L7.58 15.92C6.89 16.61 6.8 17.73 7.4 18.51L7.84 19.03C8.44 19.81 9.56 19.9 10.25 19.21L12.84 16.62C13.1 16.36 13.37 16.09 13.64 15.82L13.64 15.82L13.64 15.82C13.64 15.82 13.64 15.82 13.64 15.82C13.79 15.66 13.93 15.5 14.07 15.35L15.87 13.55L13.51 12.48L11.39 13.39C10.87 13.59 10.43 14.03 10.23 14.55L9.32 16.68L7.99 15.35L10.58 12.76L12.2 11.14L16.55 9.17C18.18 8.81 19.4 7.61 19.48 6.07C19.54 4.91 18.86 3.76 17.59 3.07C16.5 2.48 15.1 2.64 14.07 3.32L12.74 2.32Z"/>
</svg> 